<svg id="visual" viewBox="0 0 700 350" width="700" height="350" xmlns="http://www.w3.org/2000/svg" xmlns:xlink="http://www.w3.org/1999/xlink" version="1.1"><rect x="0" y="0" width="700" height="350" fill="#ffffff"></rect><path d="M455 350L462.7 330.5C470.3 311 485.7 272 495.2 233.2C504.7 194.3 508.3 155.7 486.8 116.8C465.3 78 418.7 39 395.3 19.5L372 0L700 0L700 19.5C700 39 700 78 700 116.8C700 155.7 700 194.3 700 233.2C700 272 700 311 700 330.5L700 350Z" fill="#038fcc"></path><path d="M501 350L514.8 330.5C528.7 311 556.3 272 572.7 233.2C589 194.3 594 155.7 584.5 116.8C575 78 551 39 539 19.5L527 0L700 0L700 19.5C700 39 700 78 700 116.8C700 155.7 700 194.3 700 233.2C700 272 700 311 700 330.5L700 350Z" fill="#1d4872"></path><path d="M618 350L619.3 330.5C620.7 311 623.3 272 618.2 233.2C613 194.3 600 155.7 600.8 116.8C601.7 78 616.3 39 623.7 19.5L631 0L700 0L700 19.5C700 39 700 78 700 116.8C700 155.7 700 194.3 700 233.2C700 272 700 311 700 330.5L700 350Z" fill="#050b22"></path></svg>