<svg id="visual" viewBox="0 0 700 350" width="700" height="350" xmlns="http://www.w3.org/2000/svg" xmlns:xlink="http://www.w3.org/1999/xlink" version="1.1"><rect x="0" y="0" width="700" height="350" fill="#ffffff"></rect><path d="M0 21L38.8 59.8C77.7 98.7 155.3 176.3 233.2 207.8C311 239.3 389 224.7 466.8 194.7C544.7 164.7 622.3 119.3 661.2 96.7L700 74L700 351L661.2 351C622.3 351 544.7 351 466.8 351C389 351 311 351 233.2 351C155.3 351 77.7 351 38.8 351L0 351Z" fill="#d4af37"></path><path d="M0 134L38.8 157.3C77.7 180.7 155.3 227.3 233.2 224.8C311 222.3 389 170.7 466.8 155.8C544.7 141 622.3 163 661.2 174L700 185L700 351L661.2 351C622.3 351 544.7 351 466.8 351C389 351 311 351 233.2 351C155.3 351 77.7 351 38.8 351L0 351Z" fill="#070708"></path></svg>